<svg xmlns="http://www.w3.org/2000/svg" viewBox="0 0 100 100" aria-label="Logo Betru">
<defs><linearGradient id="g1" x1="0" x2="1"><stop stop-color="#fff0a2"/><stop offset=".45" stop-color="#ffd33d"/><stop offset="1" stop-color="#f19c12"/></linearGradient></defs>
<path d="M23 38c2-17 11-27 27-27 15 0 24 10 27 27" fill="none" stroke="url(#g1)" stroke-width="7" stroke-linecap="round"/>
<path d="M27 37h46l-5 48H32z" fill="#07151e" stroke="url(#g1)" stroke-width="5"/>
<path d="M39 28l11-15 11 15-5-2 5 9H34l5-9z" fill="url(#g1)"/>
<circle cx="50" cy="56" r="14" fill="#f4f7f8" stroke="#07151e" stroke-width="3"/>
<path d="M50 45l4 8 9 1-7 6 2 9-8-5-8 5 2-9-7-6 9-1z" fill="#07151e"/>
<path d="M61 78c10-8 17-11 27-17" fill="none" stroke="#20e7a0" stroke-width="6" stroke-linecap="round"/>
<path d="M80 61h10v10" fill="none" stroke="#20e7a0" stroke-width="6"/>
</svg>